<svg width="24" height="24" viewBox="0 0 24 24" fill="none" xmlns="http://www.w3.org/2000/svg">
<path d="M20.84 4.61C20.3293 4.09956 19.7225 3.69324 19.0555 3.41443C18.3886 3.13562 
17.6742 2.99023 16.953 2.98635C16.2319 2.98247 15.515 3.12016 14.8455 3.39245C14.176 
3.66474 13.5688 4.06641 13.06 4.58L12 5.64L10.94 4.58C9.908 3.548 8.509 2.986 7.047 
3.01C5.586 3.034 4.204 3.648 3.172 4.68C2.14 5.712 1.526 7.094 1.502 8.555C1.478 
10.016 2.04 11.415 3.072 12.447L12 21.375L20.928 12.447C21.4415 11.9333 21.8387 
11.312 22.0907 10.6245C22.3427 9.93696 22.4435 9.19947 22.3868 8.46774C22.3302 
7.73601 22.1174 7.02771 21.7632 6.38907C21.4091 5.75043 20.9227 5.19581 20.336 
4.764L20.84 4.61Z" stroke="#ff4e73" stroke-width="2" stroke-linecap="round" stroke-linejoin="round"></path>
</svg>
